<svg width="33" height="15" viewBox="0 0 33 15" fill="none" xmlns="http://www.w3.org/2000/svg">
<path d="M1 6.36426C0.447715 6.36426 -4.82823e-08 6.81197 0 7.36426C4.82823e-08 7.91654 0.447715 8.36426 1 8.36426L1 6.36426ZM32.7071 8.07136C33.0976 7.68084 33.0976 7.04767 32.7071 6.65715L26.3431 0.293188C25.9526 -0.0973366 25.3195 -0.0973365 24.9289 0.293188C24.5384 0.683712 24.5384 1.31688 24.9289 1.7074L30.5858 7.36426L24.9289 13.0211C24.5384 13.4116 24.5384 14.0448 24.9289 14.4353C25.3195 14.8258 25.9526 14.8258 26.3431 14.4353L32.7071 8.07136ZM1 8.36426L32 8.36426L32 6.36426L1 6.36426L1 8.36426Z" fill="#E74C3C"/>
</svg>
